<mxfile host="Electron" agent="Mozilla/5.0 (Windows NT 10.0; Win64; x64) AppleWebKit/537.36 (KHTML, like Gecko) draw.io/28.0.4 Chrome/138.0.7204.97 Electron/37.2.1 Safari/537.36" version="28.0.4" pages="2">
  <diagram name="Page-1" id="yRcBU3frsU23WehQjjlV">
    <mxGraphModel dx="1426" dy="841" grid="1" gridSize="10" guides="1" tooltips="1" connect="1" arrows="1" fold="1" page="1" pageScale="1" pageWidth="850" pageHeight="1100" math="0" shadow="0">
      <root>
        <mxCell id="0" />
        <mxCell id="1" parent="0" />
        <mxCell id="un9kZ586aoEXV_3ygZrB-16" style="edgeStyle=none;rounded=0;orthogonalLoop=1;jettySize=auto;html=1;entryX=0;entryY=0.5;entryDx=0;entryDy=0;" parent="1" source="un9kZ586aoEXV_3ygZrB-1" target="un9kZ586aoEXV_3ygZrB-9" edge="1">
          <mxGeometry relative="1" as="geometry" />
        </mxCell>
        <mxCell id="un9kZ586aoEXV_3ygZrB-1" value="Ansible AWX" style="rounded=0;whiteSpace=wrap;html=1;" parent="1" vertex="1">
          <mxGeometry x="300" y="90" width="110" height="60" as="geometry" />
        </mxCell>
        <mxCell id="un9kZ586aoEXV_3ygZrB-14" style="rounded=0;orthogonalLoop=1;jettySize=auto;html=1;exitX=1;exitY=0.5;exitDx=0;exitDy=0;entryX=0;entryY=0.5;entryDx=0;entryDy=0;shape=filledEdge;" parent="1" source="un9kZ586aoEXV_3ygZrB-5" target="un9kZ586aoEXV_3ygZrB-1" edge="1">
          <mxGeometry relative="1" as="geometry" />
        </mxCell>
        <mxCell id="un9kZ586aoEXV_3ygZrB-5" value="GIT HUB" style="rounded=1;whiteSpace=wrap;html=1;" parent="1" vertex="1">
          <mxGeometry x="30" y="90" width="120" height="60" as="geometry" />
        </mxCell>
        <mxCell id="un9kZ586aoEXV_3ygZrB-13" style="edgeStyle=none;rounded=0;orthogonalLoop=1;jettySize=auto;html=1;exitX=0.5;exitY=0;exitDx=0;exitDy=0;exitPerimeter=0;entryX=0.5;entryY=1;entryDx=0;entryDy=0;" parent="1" source="un9kZ586aoEXV_3ygZrB-6" target="un9kZ586aoEXV_3ygZrB-5" edge="1">
          <mxGeometry relative="1" as="geometry" />
        </mxCell>
        <mxCell id="un9kZ586aoEXV_3ygZrB-6" value="&lt;div&gt;GIT&lt;/div&gt;" style="verticalLabelPosition=bottom;html=1;verticalAlign=top;align=center;strokeColor=none;fillColor=#00BEF2;shape=mxgraph.azure.computer;pointerEvents=1;" parent="1" vertex="1">
          <mxGeometry x="55" y="280" width="70" height="50" as="geometry" />
        </mxCell>
        <mxCell id="un9kZ586aoEXV_3ygZrB-7" value="&lt;img src=&quot;data:image/jpeg;base64,/9j/4AAQSkZJRgABAQAAAQABAAD/2wCEAAkGBxISEhMSExIWFRUWFxoYGRgXGRsXHRcaGRgaGBsdGBkaHSkjIBslGxgYITEhJSkrMC4uGiEzODMtNygtLi0BCgoKDg0OGxAQGy0lICUvLS0tLS0tLS0tLi0tLS0tLS0tLS0tLS0tLS0tLS0tLSstLS0tLS4tLS0tLS0tKy0tLf/AABEIAK0BJAMBIgACEQEDEQH/xAAcAAEAAgMBAQEAAAAAAAAAAAAABQcDBAYCAQj/xABSEAACAQIEAgcDBQwGBwcFAAABAhEAAwQSITFBUQUGEyIyYXEHgZEUQlKh0RUjYmNykrGywcLS8BYkM1OT4Qg0ZHOj0/E1RIKis9TiF0NUw8T/xAAYAQEBAQEBAAAAAAAAAAAAAAAAAQIDBP/EACoRAQEAAgECBAUEAwAAAAAAAAABAhEhEjEDQVGxE2GRofBx0eHxBDJC/9oADAMBAAIRAxEAPwC8aUpQKUpQKUpQKUpQKUpQKg+tHTLYdbYTLncnxbZVGp3GslR76nKqv20qDdwKsYDF1J3gFrYJjyGtaxm6lTH9LMT+K/NP8VP6WYn8V+af4qrPG9EWrbZezxT8ZRUcbxqQND5Vr3MJaAJFnGCAd7axtx02rprFOV/9A9IdvZVzGbUNG0j/ACg++pGuG9jjT0eT+Of9C13NcsuK01ukcWLNq5dOyKT6wNB7zpXFjrZifxPuB/iqa9ov/ZuK/IH661S9jom2bFu9F58wki0FMHMRAU6nQAz51vCTXKVZ/wDSvFfivzT/ABVNdWOnXvu9u5kzAZly6aTDTqea/GqSGDtf3GN/w1+yuq9kUDpG8oDKBh30cQw79rxCtXGaSLlqL6x9KHD2c65c7MFXNtJ1M68FDH3VKVXftuaMHZP44fqPXLGbq1sf0sxP4r80/wAVP6V4r8V+af4qrXG9DWrcELiLoOzW1Rp0GpESAZ41rjB2v7jG/wCGv2V11inK9urPSxxFti+XOrQcu0HUGJPmPdUxVZexFpTF/lp+ht6s2ueU1Vjy7gAkmABJPICuLbrZiSTlS3E6SGJjhPe3rqOnf9WxH+6ufqGvzph8LZNlLrXWkg5lQWWKw5UDK19XJIAbRIht9DWsJL3KuL+lWK+ha/Nb+KpXq509cvXGt3VUHLK5QRsdQZJ5j4GqHAw308R/gW/+fXWeydk+6UIWK9i8FlCH5u6hmA+NauM0kq7qUpXFopSlApSlApSlApSlApSlApSlArW+XW8zLnAKkAzoJMGAToTqNBzHOtmozF9B2rj52zSd9TqCrIV9IY+msRJkNxMZbMQ66wIkTLCQI3kjhX0Yu3p311LASYkoSGAnkQfhWkOgMP3Dk8BUjUnwmRv518xHQVp98x1cgEkgG4czd3jrr8RtQb4xKTlzrMxEiZiYjnAJ91VP7csSUxHRcGJumWjNlh7WoA3jlVmYHoWzabOi96AJJk6CNfr+NVl7cx/WeijJWLpMgZisXLOoHEjeONXHuOW6wK4uD+rY46b4bMV8R8U2/F5coqOuo2VvvHSY0OrA5Rp8773tzrb6wdD5rgPyPGHQ64clVPePiBwg73+VQ2I6EIViMJ0mNDqznKNN2/qw056itzaLn9iLT0bP465+7Xf1XXsIn7l679vc/dqxaxe6uY9prx0XjCOFv95apvDXHfo/DuLV+53AJw+YOPvj90DIQQOJnjVx+0//ALLxn+7H6y1TFro/tMBh/vF+7FsDNZBVxFx+6p+TsConfMdzVm9I10Rz/wB36VHqD/yq6n2NsfupfBFxYw7aXfGO/Z8eg1920VxbdBf7H0p+ef8A21dV7EbLJ0riFK3EHyZ+7eM3F++WdHOVddZ2GkVrd0L4qr/9IO+U6PtER/bqNfyHq0Kq7/SESej7Q/Hj/wBN6xO6uP6xlzkYWcXczSc+GDAtourqbfdngPWopUb/APH6V+Df8qpDrJ0Z2hVvk2KuTJz2AbbPIHeuA4XSeAk8ag26C/2PpX3Of/bVqbRZ3sGabeN3/tE338J386tSqj/0e1ItY4GdLqb7+E7+dW5Wcu6xodPn+q4j/c3P1DX536K6TI6Pst2l0QrD+ruQ6Tfcx2Xypc5Mzm7I91hr3ZH6H6wf6rif9zc/UNfnroZT9zrIz3u6rCcO5V0+/uYFvt1DEzObsz3W37ulm0YrfS5P/eelPepH/wC+ul9k2Iz9LE5rr/eH1veM+Dxd5vdrtFcsyt/f9LfH/wCdT/sfzfdlpa8w7B9b/wDaf/b8Wp93lFa3Rf8ASlK5qUpSgUpSgUpSgUpSgUpSgUpSgUpSgUpSgVUPtuxIGJwIDAPbV7gmNO+mU6+aH4Vb1Y7nKAT58PM1cbqpX5pvxdOYmyp/A7NAdZkhY113rWvYRfpL7mU/tr9OG0AV0G+um/dNYcRgbbQropHzSQDlPLX6v+ldfiT0SRxXsSur8huIN0vtPvVDpVhVHfJmt+F2A/OHvzSV9RPurJ8qdRLBSPpAwPcdR7yVrjbutIH2pXlXovE5jEhFHq1xQKo5Lxe2ltjahAFVothgoJYDP4oljx41+kGxgI1BUc2GnxEj4mvj2VKM2hlTB0Okcxp8K6YWTuzea/Nj4Rfpp+ev211nsbKp0kRIJfD3FEGdc1ttY8lNXXesLrKgqdxG3mP586xDC5NbZgctNvQ6R6QfM0vib8lkb1Vl7drinDYa2SAWvEgExIW2wP1uvxqwFxpicucDimkeobb0BJ8q+rd7T5wWNSI7w9Qw094rOPF2Wvznibxv95zazbllFtCxPFisT761buEWPEn5y/bX6UfDrldso8JidTsdSTr9le7mHURI04EaFPf9H+dtt3xJPJOmqz9hNxR8stjebTaaiCHH7Prq161xmTcZhzEAj1Gx93wpbxiN4Dn/ACdYPI8j5GKxebtezT60XlTB4p2MAWLhP5hr8+YDG3RYSypACAhWVnVgC5uHZwu7NqVmD6V+jbl1zpAWeB7zfAae+YrAcJmMMfWNI941BPIEforWNmPdLuvz273/AO/uf4rfxVO+yu8F6Vtm45Zrlu4gJJJJyhok/gofhV22cKsFQAMrGIG2n+dZbJEwQAw5cRzHl+ilzlnZdM1KUrmpSlKBSlKBSlKBSlKBSsOLRmtuqNlYqQrfRJGh9x1qJfB4wEdm6oIPda413Xv653Qnip8oiCKCcpUOmFxRS6r3VlgqqQdVBJDkFUU5shEfhCe6DA8WMDiZBe4CZtywdwCFNvMBajKM2VzMz3o2JNBN0qAxXRuLyuLV8Au14kszaByeyCkq2XKDwiIGhrKuFxkgm8pGbUaDuQIE9nq2aZMa8Ms6BNUpXl2jQbn+fhQfHbgN/wCdTX1Fj9p50RY9eJr1QeG8Q9D+z7a9OBBnasPaS3d1gb8NTz93CvYt8SZ/QPQVakY0unwjXkx2I/afqPPkOHA7wMHfXUfm/Zr61kvssamOI56cqxW7jMdoI56ejAb+4xFXRXkIJkgox2jYn9BPqPtrBjUEPoGOUyU7rbcSP2kVumzPiOby2Hw4j1mtXFsERlUjwnunhpwPD018oqScm9PqFyYV8v4NwSY8oj4y1YwzLumZfpA5gvnBjT0Hv5Z8wfQqW/BYQB6g6n1gjlX02mA0cKOR7w+Jond8BtsR3ofhPdb3Ajb3VjvXFYw4DKp3AnXzAkiOY+rasLn5jKWU7k95ROw248Dl0+E7NrCrAyNlGwFs90DkBqPgBRd+jy2aIU6EbOZkfgkd74zXizfuFVzAqCBqBmGo95+IWsow7pJQqZ4EFZ82iZPmAKw4bH91VKFT4ZjMummjLM7eW3CmzVe0RAASwdeBJkA8vSdvhWZ7WfUSnJho0eQ5eTT6V5XD2370hjsWB+rTh5V5ZntwJDg6Lm0M8iw09NPU8211H0s1vSM0/OEk+rDcx5b8hWxYKx3TI5+fGfOsNu+B45VjuW0HkA23umsr2ATIlW5jf38D75qBZ3f8r9xa9Xbc+RGxG4Na1m4yl8wkZh3lH4K7rv8ACfdW0jgiQQRzGtB5t3NcraN9RHMfZw+BOSvFy2GHLiCNweYr5bua5W0b6iOY+zh8CQyUpSgUpSgUpSgUpSgUpSgUpSgUpXl2jzJ2H88KA7R5k7D+eFEWPMnc/wA8K8BgPwm4x/OgrwXncz5Lt72/6VdIym5wGp+oep/k15ZeLnTlsPfz99YxcnQaD8EZvr2FelQ75debGSPd/mKugW5LHKCdAOQ4n9vCa+vzZoHlp8T/ANK+W0JLSx34afNHv+ugRfFAA58T796Jt5QjcKT7t/Mk7/z7vt7NpsDw3YnyjTSvTXPd+k+g/n0r6oPAR5nf+fWKqb9GO2hbxFvSYj1yxXzEFVRwoHhbRR5Hfh8a93LPHc8tgRyj9E0xBBttG2U/oNNtSPT2y28D9PuPA/GsTgr+GTsTqRzMcvSOAith3gfzrXgQurHU/wAgDnWTT7aCkaag7+fOfsrA4AaNS3AjQ+jH7d4517a0WM+D03Prwj69eFNFGVgAOY29TxB8z8aivPZP84hx9Hb4nZvgBTD3FIKtoczaMN5YmOR0I2msyNHdPuPP/P8An0821k3AdRm/dWgx3sOB3oBA5+Ifktv7vrFY7VrNJDEGIyP3oB5z3tfWPWsi2Z1Uwo2G4PnHLlEc+Verk/OXbZl1j3bj0E1FeBcdNGXMOBU6nyIb7TXmbY2JtH80e4MMp9RWQXJGvfXmNx6gcfT4V7tXOBMg7Hn5etBiRnVmkBtAe7oeI2JjhvPur6MjHuko59xPqp3Hn8DXlcMudoGXur4Tl4vwGh94r3cstEEq45ON/eNP/LVR67Yr4xp9Ibe8bj6x517dQwGvmCOHmDWr3l4Ov/FX4eP9Arwt0SSuh3OTvD/xpvJPIT50G7buGcreL6iOY+zh8CclafyhWHe0g+NTIB8/onyOmsa1ntXOB38tmHMfZw+BIZaUpQKUpQKVrY28yZCASM0NCliFg6gDXfLUS3SeLbujDlCWYZtWCgCZ4CQe7yMgjSRQT9KiMT0jeU5VtFj2uUkgqoQnxZttFkkifDGhIrxgOlMRcdZw+RGg5mOoUrmBMCJ+bE6EcQRQTVR97prDoxVrqggwRroa9dOY/wCT4a/fieytXLkc8iFv2VRh9oGHJBa1el+8CV8ckiRzlgRI4g1rGS90q7LvWLDAE9qDHASSfqrUXp+02vaKs8yZ+qYHlpVTJ1yw5LL2d2VnMChBXL4swO0QZnasqdarBGYI5WYnSJiYmd41iukxjNtXJgWS6spcDqDHdGk7wQdOPKtwWV5T66/Carv2e9YQ+JNlVZQ9sv3tNF2YeWpH/SrIrGW5Wo18ZjbdoBrjhQTAnnvWp938L/fL9f2VXntJ65W7GMOHe3cbsrQudwZgFbdjy1gT6c65dOvOGIzdndykxOQxIAJE7TBBjzqzGWFtXEen7BkC4u51MgHlwmIj+d8+G6UsOwUXgzHQASPcD9kVT6da7JZVFu5maMqwAWzeGBMmZERvNZbXWq34lR+7DSI7uogk8NY98Vvpnk5yeq7lUDYV6rW6MxXa2bV2I7RFeOWZQf21s1wdWnjOlLNo5blwKSJg8tv2GtDE9OYbK0XVMggjXeIkaVU3TvtBsm/fL2rvdvPaLBZWUJAUHaYEx76wJ10w5Kjs70sAVBQgsG8JXmDwjeukxibq4fu/hyZ7VRymdPdxP6PjW5gMdZuEi3cDsBrzj7PSqZt9a7DSAjkqCWGkqAYJYToJIGvOpTq51qQYixkRhnuLak7HOQpE8xmBj0q3DjhOpcFY8RfW2pd2CqNyfhWSuA9qfWdcKcNYNu4/bFyBbGYkpl0ganxz7q5zu06Z+mMLHdvKPLWPdpofT4Gsdvp2wSwa6oGkn6W408oAmqcs9fMMwLC3dgRJyEgSYEnhJ0rY/pjh4DFHAaYJAAMbwSdY41voxZ3Vy/d/C/3y/X9lSdUf/SO3mydlczfRjXadt9tatTqX0p8pwdq7+UvqEYqPqFTLHSypl7QOpGvMaH4jWorH421bYq15Q25DaHykqPIcJ8xUxVB4z2i2HZrr2r3edhmyyJWJAPGAV90VnHGXuu7Fv4TrBYzNnuKICieDaty4661tfd/C/wB8v1/ZVM2+uVgsEFq9mMQuQgnMJEDfUEEc5rJa62WGBKo5AiSIMSYE66SdK6TCM21deC6QtXZ7Nw0RMcJ2/RWe5aVvEoPqJqquqHWZflVlVRh2pKSdmHGOcGDVsVjLHVWVoY21bRc7OUA+cTMTpuZI9FIqHudJ218GItnjGq6+QjT1nXjNQXtT60LhrmHw7W7j9oHcC2MxJTTYa6Ak/HlXCWeveGYFhbuwIk5CQJmJOwmDHOKuOMs5LauPAdZrLKe0YIwMHWQ3mpHD9FbS9PYYkAXl104/ZVM/0ww8AlHAaYJAAMGDBJ11BFbB6x25K9lczCZWNRAkyNxABnlFa6Im6vClQ/VHpP5ThLN76QI145GZJPmcs0rleGkxSlKBSlKDR6c6P+UYa/h82TtrT280ZsudCsxImJmJFVfY9ijDJm6RZ+zACTaPcAJYBJvHKMxJgcSTVvUqy6FYH2W5Wn5Yxa6WV2yGWzKzPnPaS2aDIO861q//AEoFxey+VlV8eXsyVzrKMcvaAZl2zbw1WjifFa/LP/pvWA91ifo3P/LcAn3doZ/8NdJlbGdOO6l+zd8BilxLY5r4W0bS22QjKpIgKTcaFEGFAjWrApWu90sSqcNC3BfIc2+oceR591V7129nLY7GviExjWjctLbe2qEgoDrncXB3SQO6QZK8Y0j7PsnVVKHGk2kJY/ezlzmAcqdoQWgAEjXQDXhZ+Xe2mnF23Inz4uR8BryBWkDEQPvaGAObDj6L+mTwBrcukV8vssYlLhxjLcULlbKSyZdFCsLkjKAAIOkaVH3vYu8OE6Ra3nENltHvCQ0NF4ZhIBg8QDVuUrNztXTV6LwnY2bVnNm7O2iZojNlULMTpMbVtUpWVVLjPY0z3LrHpEhLl573Z9kcoZyTMdtBYAxmiYrOfZXkUXflrObSAochlQglAjdocoHCNuFWXiEGe2eRP1qfsrxbE2AOdv8AdrGHjZfE6Pz/AJ/dq4Tp3+easL3s0AMnFsi3lhrgQkMXIJS798GjHKQTIJGsHLOboz2QvZvWLg6RYpZvJe7LsiFYqyk6drAZgoGaCdByqycAA9i2CAQ1tZB1BBUSCOVa4c4bRiTY4MdTa8nPG3+F83jpqPRbbxO7lOEnXGdf+oz9JXMNdt4tsM2H7SGVCzHPk1DLcUqRl+uuzrSxuKbMLVqDcImTqLa7Zm+BAX5xHIEjnJbWrdKswnslFtjYTGFgQO1AtlVAHeTOBcIY5tQp2300ncxHsvXMllsUSoR2WUJVe8mYBTcgSWBMcqs3CYZba5VnmSdSxO5Y8Sa0OllBuLO3Y3v02m/dq5+LccbZ5S36QmO7N+qvsR7IXe4bq9JOt2dbgttn1WPH2wbwmN9jFd11K6vnAYS3hTd7YoXOfLknM5bw5jtMb8KlsOO9c/KH6i1nrnhnc5u+t+1sas0VT6exJoyt0iWQMzBDZOVS0SQO2gEgAExrA5VcFK3LpFaWfZSVcXPlzm4sQ+RswyjKsN2siAABroBFQ59mjtYutavExce29pVy9otq6RxuBWbuhgrQJ+cN6uOovoDa8OWIu/W0/tq9dTUV71P9m4S9hsXb6Ra7asuzCybTIFYyHUq1372+bxAqDK6iataorpHo5wxv4Yqt7TMrSLd8DQLcgEho0FwAldNGHdOx0Z0kt4HQo6aXLbwHtnkwBIIPBgSCNQTUt2rluvvUN+kb2HvpjGwzWVdQVQknPEwy3FI0keYJrjm9lwsn5NaxZu3HCs1sWyiBQTle9FwgKDmyyCSc2UaMRaON6RZ3bD4aDcWO0uESliRIDfSukEEW+RBaAVzbXRnRyWFKpJLHM7sZe45ABZ24mAByAAAAAACZWGlaL7MQ918OcUctlEZZQkAXWuEhVNyFGZCdNyTX3Fex64ztcHSTrcacz9mxdswhpbtgTIJBk6g13+EP9fxI/wBnwx/4mKH7Kl6vXU0hup/QZwODs4U3e1NvN38uTNmdn8MmPFG52pUzSsqUpSgUpSgUpSgwYne3+X+6w/bWPEIC5B0D2yCeWU//ADPwrQ6U6dso+QliysCYEjzE84rFY6Ut4hxqYRhCERmDdyTzgsDHDz0jpJWakcPda8oPhWNSN2PELyWZE7nhGhOa40RbtgAxy0RdpI/QOPoCRi7XIzoBLE5lHCG3J8gwYk/hDiQKy6W1J8TE+92Og+zkB5CpR4dYi0hMnVm4gHck/SJmPeeEVsogAAAgAQByArxh7WUSdWOrHz8vIbCstZtWFKUqKUpSgwYjxW/yj+o1MKPvajyj9lfcRun5X7rCvOBcFBHMjlsxFebHU8az9fbF0v8Ap+fNh6CM4bDn8Vb/AFBW8a0egv8AVrA5W0HwUCsmOxeSFUZrj6Iu0xuSeCCRJ9NyQD7MpvOyOMusUZjLzYU5LQzKwJCansQN2ga9kPo7jYaaLJ9H4dUSVbOX7zPoS5I8UjSIiI0AAA0FMDhMgJJzXG1d9pPAAcFGwXh5kknXey1gl7YLWyZe2N1J3a0PrKcdxrIbVsy4n9pJrlJVF9M+K35i6vxtk/u1IWLyuoZSGUiQRxrR6ZGtj/eN9di9/lXHPHeOU+V9q3LzL857tyz4n9x+r/Ks1auHeXYfgofjNbVc/BsuO5633rec1fp7FKUrqwVF9CeLEjliG+tEP7alKiOhW++Y3kMR/wDz2G/bQS9cv0pbONuf1Vzaa0WRsWomDs1pBtdE+Ke6pGnfXubS32x39mzJheNwEq2IH4ojVbJ/vBq3zYEMZhEt2bYChbdtFgAAKqqogAAaAAcBQRnV+8lsDCm2LN1AWNuSwcT3riOdbgLNLMe9Ld7UiZmuf6VBxKgZAmU5rdxiVuI0QHQASpgka7gkEEEg62F6fv2ri2MQqOW/s7luVF6BJADaC6ACeznUAlZAYLdCRww/r+I88Nhvqu4r7amKhsDfV8XcdTIbD2vLw3L0gjgRNTNQKUpQKUpQKUpQKUpQUJ0piMS2Kxy21zBL96W7QLlBu3CJkaaab8OFZ+q95sKxu3sQWuqGBRszKo2kxqWEHUGPhWpfj5T0iMsMcdeOZXRHK5zlE3nClJzghROoNR2Dwyub73GvhFZbcqxZWuMksp7IOvLwgjveddZdMra6p9bLeKvlQys+UklQygISAJzcmygflGutsd89odvmDy4t6nh5epFUH0X0nhsNnS1AGbdlfM22+g22iBtXW+zDrbcxGMNgoVBtsxBJOqlY3040y7bhFsUpSuTRSlKBSlKD4RXG9J9acdbYqvRzgAnU5rk+f3tYHxNdT0gTlABIl1BgwYLCdaj+lO0trNu21xtYBvukwrMNQrRJUDbj5VvDLDDnKbS45ZcS6cbguuWNRUQYUEbL3LktG8c4/ZU91X6UxVy6TewVxS85rrSoVRJVQjgHKNtCdSTzqabo6xZDXSzqERpY3HhVku250E6nnA5Co49IAZrrdoLAtrc8V3tAjZu+yTMd3wRmHHWVXvn4uGUvTh3/AFcscMp3ydLWvjzd7NuxCG5HdDkhZ841rSDlcRZVXYo9u4TLZgYKZSCfU7bz6VudIMRbMEjYSN9WArzdq6uGujppGdktKuYyRb7MqT9IK7EgnjzrTTHdMXAjlcwDjLIsjv6pBEggySCDEV3HSCNbBKK7mYA7ZlnT3xrX210VbI7Rw6swRnHavAZYInUAkbZo1AHIV6cf8rHtcZ9P5cr4N77v1eerz40q3ytLSnTL2ZM8ZzCSOUQeelS9c2nSAbJdTO2Ha2z5s9zMyqU76rOqjNtEmCRwDblu+O0wrWrjNbvKxnMWDLkDKRPx051wy5u9adJxExSlKw05brF1rFi98nU2w+UN3ydQZ8KjfaoTH4iVdnuKUu3O0uI39ndIt27aqyAZskICVYgEgzIMVvddvZ+uPvLiFvm26qFIK5lIExxBB18647pH2dPmCNibKiQpYg+KC2UCNWgEwOFdMenScu+6D6znFh1tm3NuA7qS696YCjnodJ0qSftGgM6soM+HKZG3EgidfdUB1I6q2+j0e2L3au5VmMBYABCwsyAe9rxjyrpWKgEkgAakztAn9FZoxFK5nrv0rbsJbt3cuW9mEsC0FcpERsZIIbgRO9dSl5CzKHUsphgCJU5VaCOByup9GB41EdZurWH6QtqtxmGQnKyMJUzDAyCDqsEeXCkHO4Lp21bBu/KwHKopdmTMQub5ubKxmNSQdePCW6n9cxisQcP2gukIz5gsRlKjcd0+LhULe9mlsgoMUZAmCgJ1mJhuMHWOBroOpHUbDYE9uhuPddIJcjuhoJACgDcDedq1l0+RHYUpSualKUoFKUoFKUoFcBivZ27YnFYgYhQMRczxkcFe7lylluDMp4giNBXf0qy6FA4vD/JsXj7RujNaazbBICIRctG4SXcO2eV4DcSTqYm/Z8X+6tlzGW7hLjaOriVuBdMoEaZdCBrmiQKs291awjXXvGyO1uRncFlLQABJBHAD4V6wfV7C2rvbpZAu5SueSWynhJJ0q9SaSlKUrKlKUoFKUoNbpCy7JCFQwIYZgSJUgwY1qPuYfFMysUwpZTKkhyQYI0PDRiPea3+krDXLbIpIJiCGy7EHfKeWxBB2IIqLw+BxqkZrylRkEA7ALB1ZGJ14E97eV2q7Sxs/13/Z/wDiVhXCYoXDdy4btGVULffJKqWYD0Bdj76+JhMbKMbyjvrmUEEZAWmCbckkFdIG243PzFdGYhrr3A6sjEfeyzoAE0UBhI1l2MKNSBJgGmxsYfCXzeS5d7KEVlATN87LvP5Nb2NtF0ZVIB4TtIMiY4aVpdE4G7bP3x85CwXzPLnSJQ91YgjiTvpJnP0th3uW8ttirSDIcptzKgmOYEeoptWlesYp8pe1hWKkESzmCDII7m4NZScb9HD/AJ1z+GtZMNjxM3rZ8cRoBP8AZzmtsSBx1nzNZbNjG9orNdTJnYsmhhYTKqnICdRcmeY9KbTTw2FxRureNvDdoqMgbNckK5VmHh4lFPurJbwuJa9ae4LIW3n8BYnvKRxWN61cV0Xi2ZyLoIdy4AuXEydy5bUCJkQbJKgAZlZoJaak+jMNcQv2hmeOdmzd5jORhCaEaL6bAU2ab9KUqKVy74NbyrmJlbrPICnvd5dQ6kbNymuoqHvYRrbsQpa2xzd3VkJ304qd9NRVgjB1YsEz35kNuNTmZ+W2ZifLYQABXm/0NhMrHMUVDDZSABDs2vd4EsPIDyqZTEqPm3f8J/srROEtEXFIxGW5mzDszBzMzHdfwiPTz1oMWK6Kw197hLnN87K0bFQNCIIBtEA6wc4518s9BYd/viMTJLAggiS2eQIg7jcGREzWZ8HZJBK4jumR3H0Elso08JJ9dAJgAVsYLJaUqq3tSN7TcFVBw+ii0GPA9EWbLBkBBCFN5kFi+vnJ33gAVsMBaIdNBmAdeBDGJA4EEg6V7OLH0Lv+E/2V4Fp7pUFClsEMS2haNQAo2EwTPKglqUpUClKUClKUClKUClKUClKUClKUClKUClKUCsGNsdpbZJy5hBMTodDHnE1npRLNzVQp6DbLk7cwAoXRhlCRGgcDYcpkk7aVlt9FXA6t8ochWJy6wVMEKe9wObXk0RoDUrSs9McvgYen3pSlK07NHpbAG8oXOUhs0gA6gHLvyaG9VG1atzoVmYMbzSGY6Z9mdHjx6HuRoANdqmKVLjK55eDhld2I7AdH3EfM19rndggyBmJkkDMQByHDaYqRpSkmmscJjNQpSlVopSlApSlApSlApSlApSlB/9k=&quot; alt=&quot;Cisco ACI and Cisco Secure ADC Design ...&quot;&gt;" style="text;whiteSpace=wrap;html=1;" parent="1" vertex="1">
          <mxGeometry x="440" y="250" width="250" height="40" as="geometry" />
        </mxCell>
        <mxCell id="un9kZ586aoEXV_3ygZrB-17" style="edgeStyle=none;rounded=0;orthogonalLoop=1;jettySize=auto;html=1;" parent="1" source="un9kZ586aoEXV_3ygZrB-9" target="un9kZ586aoEXV_3ygZrB-7" edge="1">
          <mxGeometry relative="1" as="geometry" />
        </mxCell>
        <mxCell id="un9kZ586aoEXV_3ygZrB-9" value="&lt;img src=&quot;data:image/jpeg;base64,/9j/4AAQSkZJRgABAQAAAQABAAD/2wCEAAkGBwgHBgkIBwgKCgkLDRYPDQwMDRsUFRAWIB0iIiAdHx8kKDQsJCYxJx8fLT0tMTU3Ojo6Iys/RD84QzQ5OjcBCgoKDQwNGg8PGjclHyU3Nzc3Nzc3Nzc3Nzc3Nzc3Nzc3Nzc3Nzc3Nzc3Nzc3Nzc3Nzc3Nzc3Nzc3Nzc3Nzc3N//AABEIAC4ALgMBIgACEQEDEQH/xAAaAAACAwEBAAAAAAAAAAAAAAAFBgADBAcC/8QAMBAAAgEDAgUBBgYDAAAAAAAAAQIDAAQRBSESEzFBUWEUIzJScYEGIqHB0fEkQrH/xAAYAQEBAQEBAAAAAAAAAAAAAAAEAwUCAf/EACIRAAICAQQBBQAAAAAAAAAAAAECABEDBBIhQaETFBUyYf/aAAwDAQACEQMRAD8A7jUqUJ1jVPZv8a14WuWGST8MS/M37DvXLMFFmegXLr3VILe6jtix423dh0iXy3jfb+q8WOqxzXTWkhw2SYZO0yjuPUePuPRZN21oC1tcypMxy0mxaQ+WyKtguDfxlLyeSWUHIckAqR0K4AxigfIY9+2+fER7dquOlShGk6mzyCyviPaMe7kAwJgO48N5H3+henqwYWIcipnu2lMEns7xo4HxyfCvqaRNeaTTFDSvxW8imXn5yZjjcn+OlNusaU92OdbXNxFMvRBO6xv6MoON/OKRNd0+WeKQyTXksanEsFxO8hhP3J2PkUHXk+n3L6f7QG/4hc28UnKRZGkKOskuAmBkbgHqMdu9WQ69M5QQ2/DOxXgV34cfl4jk47fSsDxRQz8XLCODn8uw6EZx06GtFnYLqM5UBlywZpAxBU4xsR3xWLsQ9RttHnQp21225UsPLuEXjID/AAsOhVh0OcU12Us+Wt7pfexopLg5DA59BvkH9KWdGsJbZI7HR2NsYxiSQKG5anzkHLGm23ieJMSTvM3zOFB/QCt7RoVx8wGYgtxLaF6vpftXv7fhS5UYBPRx8ren/KKVKWyhhRkganPoPw1bajdylg0fJUs1ttxh/l3yOH1+lEbXQI7a7WLTi3CyhuN0xyB0ORtltttqO6ro8d9Ik0c0ttcJsJoW4Wx49RWyztY7SERxl2P+zyOWZj5JPWippMa8V+ypzMe5LO1is4BDAuFG5J3LHuSe5q+pUpYFSM//2Q==&quot;&gt;" style="text;whiteSpace=wrap;html=1;" parent="1" vertex="1">
          <mxGeometry x="530" y="90" width="70" height="60" as="geometry" />
        </mxCell>
      </root>
    </mxGraphModel>
  </diagram>
  <diagram id="iOanuHH52_7gFizo5wel" name="Page-2">
    <mxGraphModel dx="1426" dy="841" grid="1" gridSize="10" guides="1" tooltips="1" connect="1" arrows="1" fold="1" page="1" pageScale="1" pageWidth="850" pageHeight="1100" math="0" shadow="0">
      <root>
        <mxCell id="0" />
        <mxCell id="1" parent="0" />
        <mxCell id="jXDP7jWuEBK_DInbX-2p-2" value="Tenant" style="shape=step;perimeter=stepPerimeter;whiteSpace=wrap;html=1;fixedSize=1;" vertex="1" parent="1">
          <mxGeometry x="50" y="89" width="100" height="60" as="geometry" />
        </mxCell>
        <mxCell id="jXDP7jWuEBK_DInbX-2p-3" value="Application&lt;div&gt;&amp;nbsp;Profile&lt;/div&gt;" style="shape=step;perimeter=stepPerimeter;whiteSpace=wrap;html=1;fixedSize=1;" vertex="1" parent="1">
          <mxGeometry x="170" y="89" width="100" height="60" as="geometry" />
        </mxCell>
        <mxCell id="jXDP7jWuEBK_DInbX-2p-4" value="VRF" style="shape=step;perimeter=stepPerimeter;whiteSpace=wrap;html=1;fixedSize=1;" vertex="1" parent="1">
          <mxGeometry x="300" y="89" width="100" height="60" as="geometry" />
        </mxCell>
        <mxCell id="jXDP7jWuEBK_DInbX-2p-5" value="BDs" style="shape=step;perimeter=stepPerimeter;whiteSpace=wrap;html=1;fixedSize=1;" vertex="1" parent="1">
          <mxGeometry x="430" y="89" width="100" height="60" as="geometry" />
        </mxCell>
        <mxCell id="jXDP7jWuEBK_DInbX-2p-6" value="EPGs" style="shape=step;perimeter=stepPerimeter;whiteSpace=wrap;html=1;fixedSize=1;" vertex="1" parent="1">
          <mxGeometry x="560" y="89" width="100" height="60" as="geometry" />
        </mxCell>
        <mxCell id="jXDP7jWuEBK_DInbX-2p-7" value="&lt;sub&gt;&lt;font style=&quot;font-size: 18px;&quot;&gt;WorkFlow 1&lt;/font&gt;&lt;/sub&gt;" style="rounded=0;whiteSpace=wrap;html=1;" vertex="1" parent="1">
          <mxGeometry x="41" y="29" width="100" height="30" as="geometry" />
        </mxCell>
        <mxCell id="jXDP7jWuEBK_DInbX-2p-9" value="&lt;sub&gt;&lt;font style=&quot;font-size: 18px;&quot;&gt;WorkFlow 2&lt;/font&gt;&lt;/sub&gt;" style="rounded=0;whiteSpace=wrap;html=1;" vertex="1" parent="1">
          <mxGeometry x="41" y="191" width="100" height="30" as="geometry" />
        </mxCell>
        <mxCell id="jXDP7jWuEBK_DInbX-2p-10" value="VLAN&lt;div&gt;&amp;nbsp; POOL&lt;/div&gt;" style="shape=step;perimeter=stepPerimeter;whiteSpace=wrap;html=1;fixedSize=1;" vertex="1" parent="1">
          <mxGeometry x="41" y="249" width="100" height="60" as="geometry" />
        </mxCell>
        <mxCell id="jXDP7jWuEBK_DInbX-2p-11" value="&amp;nbsp; &amp;nbsp;Phy / VMM&lt;div&gt;Domain&lt;/div&gt;" style="shape=step;perimeter=stepPerimeter;whiteSpace=wrap;html=1;fixedSize=1;" vertex="1" parent="1">
          <mxGeometry x="150" y="249" width="100" height="60" as="geometry" />
        </mxCell>
        <mxCell id="jXDP7jWuEBK_DInbX-2p-12" value="AEP" style="shape=step;perimeter=stepPerimeter;whiteSpace=wrap;html=1;fixedSize=1;" vertex="1" parent="1">
          <mxGeometry x="265" y="249" width="100" height="60" as="geometry" />
        </mxCell>
        <mxCell id="jXDP7jWuEBK_DInbX-2p-16" value="" style="endArrow=none;html=1;rounded=0;dashed=1;" edge="1" parent="1">
          <mxGeometry width="50" height="50" relative="1" as="geometry">
            <mxPoint x="200" y="349" as="sourcePoint" />
            <mxPoint x="80" y="349" as="targetPoint" />
          </mxGeometry>
        </mxCell>
        <mxCell id="jXDP7jWuEBK_DInbX-2p-17" value="" style="endArrow=none;dashed=1;html=1;rounded=0;entryX=0.5;entryY=1;entryDx=0;entryDy=0;" edge="1" parent="1" target="jXDP7jWuEBK_DInbX-2p-11">
          <mxGeometry width="50" height="50" relative="1" as="geometry">
            <mxPoint x="200" y="349" as="sourcePoint" />
            <mxPoint x="460" y="369" as="targetPoint" />
          </mxGeometry>
        </mxCell>
        <mxCell id="jXDP7jWuEBK_DInbX-2p-18" value="" style="endArrow=none;dashed=1;html=1;rounded=0;entryX=0.5;entryY=1;entryDx=0;entryDy=0;" edge="1" parent="1">
          <mxGeometry width="50" height="50" relative="1" as="geometry">
            <mxPoint x="81" y="349" as="sourcePoint" />
            <mxPoint x="81" y="309" as="targetPoint" />
          </mxGeometry>
        </mxCell>
        <mxCell id="jXDP7jWuEBK_DInbX-2p-19" value="" style="endArrow=none;html=1;rounded=0;dashed=1;" edge="1" parent="1">
          <mxGeometry width="50" height="50" relative="1" as="geometry">
            <mxPoint x="320" y="349" as="sourcePoint" />
            <mxPoint x="216" y="350" as="targetPoint" />
          </mxGeometry>
        </mxCell>
        <mxCell id="jXDP7jWuEBK_DInbX-2p-20" value="" style="endArrow=none;dashed=1;html=1;rounded=0;entryX=0.5;entryY=1;entryDx=0;entryDy=0;" edge="1" parent="1">
          <mxGeometry width="50" height="50" relative="1" as="geometry">
            <mxPoint x="321" y="350" as="sourcePoint" />
            <mxPoint x="321" y="310" as="targetPoint" />
          </mxGeometry>
        </mxCell>
        <mxCell id="jXDP7jWuEBK_DInbX-2p-21" value="" style="endArrow=none;dashed=1;html=1;rounded=0;entryX=0.5;entryY=1;entryDx=0;entryDy=0;" edge="1" parent="1">
          <mxGeometry width="50" height="50" relative="1" as="geometry">
            <mxPoint x="217" y="350" as="sourcePoint" />
            <mxPoint x="217" y="310" as="targetPoint" />
          </mxGeometry>
        </mxCell>
        <mxCell id="jXDP7jWuEBK_DInbX-2p-23" value="" style="endArrow=none;dashed=1;html=1;rounded=0;" edge="1" parent="1">
          <mxGeometry width="50" height="50" relative="1" as="geometry">
            <mxPoint x="141" y="378" as="sourcePoint" />
            <mxPoint x="141" y="348" as="targetPoint" />
          </mxGeometry>
        </mxCell>
        <mxCell id="jXDP7jWuEBK_DInbX-2p-24" value="&lt;font style=&quot;font-size: 10px;&quot;&gt;VLAN Pool to Phy Domain binding&lt;/font&gt;" style="rounded=1;whiteSpace=wrap;html=1;dashed=1;" vertex="1" parent="1">
          <mxGeometry x="102" y="379" width="82" height="50" as="geometry" />
        </mxCell>
        <mxCell id="jXDP7jWuEBK_DInbX-2p-26" value="" style="endArrow=none;dashed=1;html=1;rounded=0;" edge="1" parent="1">
          <mxGeometry width="50" height="50" relative="1" as="geometry">
            <mxPoint x="269" y="378" as="sourcePoint" />
            <mxPoint x="269" y="348" as="targetPoint" />
          </mxGeometry>
        </mxCell>
        <mxCell id="jXDP7jWuEBK_DInbX-2p-27" value="&lt;font style=&quot;font-size: 10px;&quot;&gt;Phy Domain to AEP binding&lt;/font&gt;" style="rounded=1;whiteSpace=wrap;html=1;dashed=1;" vertex="1" parent="1">
          <mxGeometry x="230" y="379" width="82" height="50" as="geometry" />
        </mxCell>
        <mxCell id="jXDP7jWuEBK_DInbX-2p-28" value="&lt;sub&gt;&lt;font style=&quot;font-size: 18px;&quot;&gt;WorkFlow 3&lt;/font&gt;&lt;/sub&gt;" style="rounded=0;whiteSpace=wrap;html=1;" vertex="1" parent="1">
          <mxGeometry x="41" y="473" width="100" height="30" as="geometry" />
        </mxCell>
        <mxCell id="jXDP7jWuEBK_DInbX-2p-29" value="&amp;nbsp; &amp;nbsp; Access&lt;div&gt;&amp;nbsp; &amp;nbsp; Policy Group&lt;/div&gt;" style="shape=step;perimeter=stepPerimeter;whiteSpace=wrap;html=1;fixedSize=1;" vertex="1" parent="1">
          <mxGeometry x="385" y="249" width="100" height="60" as="geometry" />
        </mxCell>
        <mxCell id="jXDP7jWuEBK_DInbX-2p-30" value="Interface&amp;nbsp;&lt;div&gt;Profile&lt;/div&gt;" style="shape=step;perimeter=stepPerimeter;whiteSpace=wrap;html=1;fixedSize=1;" vertex="1" parent="1">
          <mxGeometry x="41" y="549" width="100" height="60" as="geometry" />
        </mxCell>
        <mxCell id="jXDP7jWuEBK_DInbX-2p-31" value="Switch&amp;nbsp;&lt;div&gt;Profile&lt;/div&gt;" style="shape=step;perimeter=stepPerimeter;whiteSpace=wrap;html=1;fixedSize=1;" vertex="1" parent="1">
          <mxGeometry x="41" y="735" width="100" height="60" as="geometry" />
        </mxCell>
        <mxCell id="jXDP7jWuEBK_DInbX-2p-34" value="&amp;nbsp; &amp;nbsp; VPC&lt;div&gt;&amp;nbsp; &amp;nbsp; Policy Group&lt;/div&gt;" style="shape=step;perimeter=stepPerimeter;whiteSpace=wrap;html=1;fixedSize=1;" vertex="1" parent="1">
          <mxGeometry x="510" y="249" width="100" height="60" as="geometry" />
        </mxCell>
        <mxCell id="jXDP7jWuEBK_DInbX-2p-39" style="edgeStyle=none;rounded=0;orthogonalLoop=1;jettySize=auto;html=1;" edge="1" parent="1" source="jXDP7jWuEBK_DInbX-2p-35" target="jXDP7jWuEBK_DInbX-2p-36">
          <mxGeometry relative="1" as="geometry" />
        </mxCell>
        <mxCell id="jXDP7jWuEBK_DInbX-2p-35" value="Interface&amp;nbsp;&lt;div&gt;Selector&lt;/div&gt;" style="shape=step;perimeter=stepPerimeter;whiteSpace=wrap;html=1;fixedSize=1;" vertex="1" parent="1">
          <mxGeometry x="199" y="549" width="99" height="60" as="geometry" />
        </mxCell>
        <mxCell id="jXDP7jWuEBK_DInbX-2p-36" value="&amp;nbsp; &amp;nbsp;Access/ VPC&lt;div&gt;&amp;nbsp; &amp;nbsp; Policy Group&lt;/div&gt;" style="shape=step;perimeter=stepPerimeter;whiteSpace=wrap;html=1;fixedSize=1;" vertex="1" parent="1">
          <mxGeometry x="355" y="549" width="110" height="60" as="geometry" />
        </mxCell>
        <mxCell id="jXDP7jWuEBK_DInbX-2p-40" style="edgeStyle=none;rounded=0;orthogonalLoop=1;jettySize=auto;html=1;" edge="1" parent="1">
          <mxGeometry relative="1" as="geometry">
            <mxPoint x="142" y="579" as="sourcePoint" />
            <mxPoint x="219" y="579" as="targetPoint" />
          </mxGeometry>
        </mxCell>
        <mxCell id="jXDP7jWuEBK_DInbX-2p-41" value="&amp;nbsp; &amp;nbsp; &amp;nbsp;Leaf / Node&amp;nbsp; &amp;nbsp; Selector" style="shape=step;perimeter=stepPerimeter;whiteSpace=wrap;html=1;fixedSize=1;" vertex="1" parent="1">
          <mxGeometry x="183" y="663" width="100" height="60" as="geometry" />
        </mxCell>
        <mxCell id="jXDP7jWuEBK_DInbX-2p-42" value="Interface&lt;div&gt;Profile&lt;/div&gt;" style="shape=step;perimeter=stepPerimeter;whiteSpace=wrap;html=1;fixedSize=1;" vertex="1" parent="1">
          <mxGeometry x="186" y="809" width="100" height="60" as="geometry" />
        </mxCell>
        <mxCell id="jXDP7jWuEBK_DInbX-2p-45" value="" style="endArrow=none;dashed=1;html=1;rounded=0;exitX=0.41;exitY=0.083;exitDx=0;exitDy=0;exitPerimeter=0;" edge="1" parent="1">
          <mxGeometry width="50" height="50" relative="1" as="geometry">
            <mxPoint x="82" y="738.98" as="sourcePoint" />
            <mxPoint x="80" y="693" as="targetPoint" />
          </mxGeometry>
        </mxCell>
        <mxCell id="jXDP7jWuEBK_DInbX-2p-46" value="" style="endArrow=none;html=1;rounded=0;dashed=1;" edge="1" parent="1">
          <mxGeometry width="50" height="50" relative="1" as="geometry">
            <mxPoint x="199" y="692" as="sourcePoint" />
            <mxPoint x="79" y="692" as="targetPoint" />
          </mxGeometry>
        </mxCell>
        <mxCell id="jXDP7jWuEBK_DInbX-2p-47" value="" style="endArrow=none;html=1;rounded=0;dashed=1;" edge="1" parent="1">
          <mxGeometry width="50" height="50" relative="1" as="geometry">
            <mxPoint x="203" y="838" as="sourcePoint" />
            <mxPoint x="83" y="838" as="targetPoint" />
          </mxGeometry>
        </mxCell>
        <mxCell id="jXDP7jWuEBK_DInbX-2p-48" value="" style="endArrow=none;dashed=1;html=1;rounded=0;exitX=0.41;exitY=0.083;exitDx=0;exitDy=0;exitPerimeter=0;" edge="1" parent="1">
          <mxGeometry width="50" height="50" relative="1" as="geometry">
            <mxPoint x="83" y="838" as="sourcePoint" />
            <mxPoint x="81" y="798" as="targetPoint" />
          </mxGeometry>
        </mxCell>
        <mxCell id="jXDP7jWuEBK_DInbX-2p-49" value="&amp;nbsp;VPC Group" style="shape=step;perimeter=stepPerimeter;whiteSpace=wrap;html=1;fixedSize=1;" vertex="1" parent="1">
          <mxGeometry x="350" y="735" width="100" height="60" as="geometry" />
        </mxCell>
        <mxCell id="jXDP7jWuEBK_DInbX-2p-50" value="&lt;sub&gt;&lt;font style=&quot;font-size: 18px;&quot;&gt;WorkFlow 4&lt;/font&gt;&lt;/sub&gt;" style="rounded=0;whiteSpace=wrap;html=1;" vertex="1" parent="1">
          <mxGeometry x="41" y="909" width="100" height="30" as="geometry" />
        </mxCell>
        <mxCell id="jXDP7jWuEBK_DInbX-2p-54" style="edgeStyle=none;rounded=0;orthogonalLoop=1;jettySize=auto;html=1;entryX=0;entryY=0.25;entryDx=0;entryDy=0;" edge="1" parent="1" source="jXDP7jWuEBK_DInbX-2p-51" target="jXDP7jWuEBK_DInbX-2p-52">
          <mxGeometry relative="1" as="geometry" />
        </mxCell>
        <mxCell id="jXDP7jWuEBK_DInbX-2p-55" style="edgeStyle=none;rounded=0;orthogonalLoop=1;jettySize=auto;html=1;exitX=1;exitY=0.75;exitDx=0;exitDy=0;entryX=0;entryY=0.75;entryDx=0;entryDy=0;" edge="1" parent="1" source="jXDP7jWuEBK_DInbX-2p-51" target="jXDP7jWuEBK_DInbX-2p-53">
          <mxGeometry relative="1" as="geometry" />
        </mxCell>
        <mxCell id="jXDP7jWuEBK_DInbX-2p-51" value="EPG" style="shape=step;perimeter=stepPerimeter;whiteSpace=wrap;html=1;fixedSize=1;" vertex="1" parent="1">
          <mxGeometry x="50" y="980" width="100" height="60" as="geometry" />
        </mxCell>
        <mxCell id="jXDP7jWuEBK_DInbX-2p-52" value="&amp;nbsp; &amp;nbsp;PHY Domain" style="shape=step;perimeter=stepPerimeter;whiteSpace=wrap;html=1;fixedSize=1;" vertex="1" parent="1">
          <mxGeometry x="221" y="930" width="100" height="60" as="geometry" />
        </mxCell>
        <mxCell id="jXDP7jWuEBK_DInbX-2p-53" value="&amp;nbsp; &amp;nbsp; VMM Domain" style="shape=step;perimeter=stepPerimeter;whiteSpace=wrap;html=1;fixedSize=1;" vertex="1" parent="1">
          <mxGeometry x="221" y="1030" width="100" height="60" as="geometry" />
        </mxCell>
      </root>
    </mxGraphModel>
  </diagram>
</mxfile>
